<?xml version="1.0" encoding="UTF-8"?>
<svg width="292px" height="235px" viewBox="0 0 292 235" version="1.1" xmlns="http://www.w3.org/2000/svg" xmlns:xlink="http://www.w3.org/1999/xlink">
    <title>2560C8F0-7EEE-44C9-94E3-5610CF703829@1x</title>
    <defs>
        <rect id="path-1" x="0" y="0" width="292" height="235"></rect>
        <polygon id="path-3" points="0.8737 0.8101 241.1267 0.8101 241.1267 201 0.8737 201"></polygon>
    </defs>
    <g id="Spot" stroke="none" stroke-width="1" fill="none" fill-rule="evenodd">
        <g id="Spot-/-Number-2---Yellow">
            <g id="Oval">
                <mask id="mask-2" fill="white">
                    <use xlink:href="#path-1"></use>
                </mask>
                <g id="Mask"></g>
            </g>
            <g id="Group-27" transform="translate(25.000000, 26.000000)">
                <g id="Group-95">
                    <mask id="mask-4" fill="white">
                        <use xlink:href="#path-3"></use>
                    </mask>
                    <g id="Clip-94"></g>
                    <path d="M241.1267,122.8771 C241.1267,159.6861 227.5607,190.6811 204.3177,212.0001 L37.6817,212.0001 C14.4307,190.6811 0.8737,159.6861 0.8737,122.8771 C0.8737,107.9691 3.4027,93.7121 8.0677,80.5501 C8.5487,79.1921 9.0527,77.8421 9.5807,76.5071 C9.7897,75.9721 9.9997,75.4441 10.2247,74.9081 C12.2737,69.9191 14.6327,65.0991 17.2867,60.4821 C37.8987,24.6501 76.0427,0.8101 120.9997,0.8101 C188.8127,0.8101 241.1267,55.0571 241.1267,122.8771" id="Fill-93" fill="#FFE640" mask="url(#mask-4)"></path>
                </g>
                <g id="Group-102" transform="translate(64.000000, 35.000000)">
                    <path d="M48.2078,71.0724 L56.7578,62.3904 L22.5998,62.3904 C20.2838,55.5044 19.5208,48.7974 20.0708,42.4954 C20.1628,41.4454 20.2908,40.4064 20.4548,39.3794 C21.1088,35.2714 22.3288,31.3604 24.0438,27.7114 C26.1888,23.1514 29.1068,19.0014 32.6608,15.3934 L32.6588,15.3954 C32.6598,15.3944 32.6598,15.3944 32.6608,15.3934 L24.1098,24.0754 C12.7378,35.6234 7.8748,52.7104 14.0488,71.0724 L48.2078,71.0724 Z" id="Fill-96" fill="#C39B25"></path>
                    <path d="M8.5579,165.0885 L75.2389,82.1105 C85.8479,69.0375 91.1129,61.2465 90.8179,51.6215 C90.4809,40.6125 83.1339,32.8225 70.9829,32.8225 C65.5749,32.8225 61.0419,34.7845 57.8889,37.9865 L49.3389,46.6695 C52.4919,43.4675 57.0239,41.5045 62.4319,41.5045 C74.5839,41.5045 81.9309,49.2955 82.2669,60.3035 C82.5619,69.9295 77.2969,77.7195 66.6889,90.7935 L0.0069,173.7715 L120.1219,173.7715 L128.6729,165.0885 L8.5579,165.0885 Z" id="Fill-98" fill="#C39B25"></path>
                    <path d="M69.9926,0.4977 C102.9996,0.4977 124.5516,22.9667 125.4496,52.3037 C125.8436,65.1467 121.4446,78.6717 111.2826,91.2757 L78.1726,132.7647 L127.6836,132.7647 L128.6726,165.0887 L8.5576,165.0887 L75.2396,82.1107 C85.8476,69.0377 91.1126,61.2467 90.8176,51.6217 C90.4806,40.6127 83.1346,32.8227 70.9826,32.8227 C56.0836,32.8227 47.8266,47.7217 56.7586,62.3907 L22.5996,62.3907 C11.5016,29.3837 36.0646,0.4977 69.9926,0.4977" id="Fill-100" fill="#FDFDFD"></path>
                </g>
            </g>
        </g>
    </g>
</svg>