<?xml version="1.0" encoding="UTF-8"?>
<svg width="292px" height="235px" viewBox="0 0 292 235" version="1.1" xmlns="http://www.w3.org/2000/svg" xmlns:xlink="http://www.w3.org/1999/xlink">
    <title>A0812BC1-1631-4342-8511-8673EC9C9F82@1x</title>
    <defs>
        <rect id="path-1" x="0" y="0" width="292" height="235"></rect>
        <polygon id="path-3" points="0.8727 0.8101 241.1267 0.8101 241.1267 201 0.8727 201"></polygon>
    </defs>
    <g id="Spot" stroke="none" stroke-width="1" fill="none" fill-rule="evenodd">
        <g id="Spot-/-Number-3---Yellow">
            <g id="Oval">
                <mask id="mask-2" fill="white">
                    <use xlink:href="#path-1"></use>
                </mask>
                <g id="Mask"></g>
            </g>
            <g id="Group-26" transform="translate(25.000000, 26.000000)">
                <g id="Group-85">
                    <mask id="mask-4" fill="white">
                        <use xlink:href="#path-3"></use>
                    </mask>
                    <g id="Clip-84"></g>
                    <path d="M241.1267,122.8771 C241.1267,159.6861 227.5607,190.6811 204.3177,212.0001 L37.6817,212.0001 C14.4307,190.6811 0.8727,159.6861 0.8727,122.8771 C0.8727,107.9691 3.4027,93.7121 8.0677,80.5501 C8.5487,79.1921 9.0527,77.8421 9.5807,76.5071 C9.7897,75.9721 9.9997,75.4441 10.2247,74.9081 C12.2737,69.9191 14.6327,65.0991 17.2867,60.4821 C37.8987,24.6501 76.0427,0.8101 120.9997,0.8101 C188.8127,0.8101 241.1267,55.0571 241.1267,122.8771" id="Fill-83" fill="#FFE640" mask="url(#mask-4)"></path>
                </g>
                <g id="Group-92" transform="translate(81.000000, 34.000000)">
                    <path d="M54.4919,41.9118 L31.0929,92.4038 L47.5939,92.6918 C62.7209,92.9558 72.4779,102.5228 72.6769,117.6578 C72.7769,125.2338 70.4439,131.3318 66.1919,135.5008 L74.8929,126.9698 C79.1449,122.7998 81.4769,116.7018 81.3769,109.1258 C81.1789,93.9908 71.4219,84.4238 56.2939,84.1598 L39.7939,83.8718 L63.1929,33.3798 L15.7459,32.5518 L15.3209,0.2238 L6.6199,8.7558 L7.0449,41.0838 L54.4919,41.9118 Z" id="Fill-86" fill="#C39B25"></path>
                    <path d="M59.6609,165.6139 C39.0299,165.2539 20.8109,156.2209 9.6259,141.8069 L0.9259,150.3399 C12.1099,164.7539 30.3289,173.7849 50.9599,174.1449 C55.2629,174.2199 59.3849,173.9409 63.3029,173.3259 C65.2619,173.0189 67.1699,172.6279 69.0239,172.1559 C73.6609,170.9749 77.9599,169.2879 81.8789,167.1329 C85.7969,164.9779 89.3349,162.3549 92.4459,159.3039 L101.1469,150.7719 C91.1909,160.5349 76.8699,165.9139 59.6609,165.6139" id="Fill-88" fill="#C39B25"></path>
                    <path d="M113.6522,1.9401 L87.3602,58.7911 C105.1252,68.2761 116.1362,86.3481 116.4442,109.7381 C116.8962,144.1411 94.0452,166.2141 59.6612,165.6131 C39.0302,165.2531 20.8112,156.2211 9.6262,141.8071 L33.8482,119.5371 C38.9902,127.1881 46.1732,133.0491 56.9402,133.2371 C72.0672,133.5011 81.5762,124.2611 81.3772,109.1261 C81.1782,93.9911 71.4212,84.4241 56.2942,84.1601 L39.7932,83.8721 L63.1922,33.3791 L15.7462,32.5511 L15.3202,0.2241 L113.6522,1.9401 Z" id="Fill-90" fill="#FDFDFD"></path>
                </g>
            </g>
        </g>
    </g>
</svg>