<?xml version="1.0" encoding="UTF-8"?>
<svg width="292px" height="235px" viewBox="0 0 292 235" version="1.1" xmlns="http://www.w3.org/2000/svg" xmlns:xlink="http://www.w3.org/1999/xlink">
    <title>814A42F2-9443-4EFE-B4CA-8E566AD052C4@1x</title>
    <defs>
        <rect id="path-1" x="0" y="0" width="292" height="235"></rect>
        <polygon id="path-3" points="0.8727 0.8101 241.1267 0.8101 241.1267 201 0.8727 201"></polygon>
    </defs>
    <g id="Spot" stroke="none" stroke-width="1" fill="none" fill-rule="evenodd">
        <g id="Spot-/-Number-4---Yellow">
            <g id="Oval">
                <mask id="mask-2" fill="white">
                    <use xlink:href="#path-1"></use>
                </mask>
                <g id="Mask"></g>
            </g>
            <g id="Group-22" transform="translate(25.000000, 30.000000)">
                <g id="Group-78">
                    <mask id="mask-4" fill="white">
                        <use xlink:href="#path-3"></use>
                    </mask>
                    <g id="Clip-77"></g>
                    <path d="M241.1267,122.8771 C241.1267,159.6861 227.5607,190.6811 204.3177,212.0001 L37.6817,212.0001 C14.4307,190.6811 0.8727,159.6861 0.8727,122.8771 C0.8727,107.9691 3.4027,93.7121 8.0677,80.5501 C8.5487,79.1921 9.0527,77.8421 9.5807,76.5071 C9.7897,75.9721 9.9997,75.4441 10.2247,74.9081 C12.2737,69.9191 14.6327,65.0991 17.2867,60.4821 C37.8987,24.6501 76.0427,0.8101 120.9997,0.8101 C188.8127,0.8101 241.1267,55.0571 241.1267,122.8771" id="Fill-76" fill="#FFE640" mask="url(#mask-4)"></path>
                </g>
                <polygon id="Fill-79" fill="#C39B25" points="187.9573 170.9655 179.3393 177.0595 202.4903 177.0595 211.1083 170.9655"></polygon>
                <polygon id="Fill-80" fill="#C39B25" points="143.8479 146.5622 152.4659 140.4682 151.4259 91.7222 142.8079 97.8152"></polygon>
                <polygon id="Fill-81" fill="#C39B25" points="153.116 170.9655 71.503 170.9655 150.21 34.6585 141.592 40.7515 62.885 177.0595 144.498 177.0595 145.089 204.7865 179.931 204.7865 188.548 198.6935 153.707 198.6935"></polygon>
                <path d="M152.4656,140.4689 L151.4266,91.7219 L123.1196,140.4689 L152.4656,140.4689 L152.4656,140.4689 Z M187.3066,140.4689 L210.4576,140.4689 L211.1086,170.9659 L187.9576,170.9659 L188.5486,198.6939 L153.7066,198.6939 L153.1156,170.9659 L71.5026,170.9659 L150.2096,34.6579 L185.0506,34.6579 L187.3066,140.4689 Z" id="Fill-82" fill="#FFFFFF"></path>
            </g>
        </g>
    </g>
</svg>